<svg width="20" height="20" viewBox="0 0 20 20" fill="none" xmlns="http://www.w3.org/2000/svg">
<g clip-path="url(#clip0_70_249)">
<path d="M4.1665 12.5C3.38993 12.5 3.00165 12.5 2.69536 12.3731C2.28698 12.204 1.96253 11.8795 1.79337 11.4711C1.6665 11.1649 1.6665 10.7766 1.6665 10V4.33333C1.6665 3.39991 1.6665 2.9332 1.84816 2.57668C2.00795 2.26308 2.26292 2.00811 2.57652 1.84832C2.93304 1.66666 3.39975 1.66666 4.33317 1.66666H9.99984C10.7764 1.66666 11.1647 1.66666 11.471 1.79353C11.8794 1.96269 12.2038 2.28714 12.373 2.69553C12.4998 3.00181 12.4998 3.39009 12.4998 4.16666M10.1665 18.3333H15.6665C16.5999 18.3333 17.0666 18.3333 17.4232 18.1517C17.7368 17.9919 17.9917 17.7369 18.1515 17.4233C18.3332 17.0668 18.3332 16.6001 18.3332 15.6667V10.1667C18.3332 9.23324 18.3332 8.76653 18.1515 8.41001C17.9917 8.09641 17.7368 7.84144 17.4232 7.68165C17.0666 7.5 16.5999 7.5 15.6665 7.5H10.1665C9.23308 7.5 8.76637 7.5 8.40985 7.68165C8.09625 7.84144 7.84128 8.09641 7.68149 8.41001C7.49984 8.76653 7.49984 9.23324 7.49984 10.1667V15.6667C7.49984 16.6001 7.49984 17.0668 7.68149 17.4233C7.84128 17.7369 8.09625 17.9919 8.40985 18.1517C8.76637 18.3333 9.23308 18.3333 10.1665 18.3333Z" stroke="#344054" stroke-width="1.66667" stroke-linecap="round" stroke-linejoin="round"/>
</g>
<defs>
<clipPath id="clip0_70_249">
<rect width="20" height="20" fill="white"/>
</clipPath>
</defs>
</svg>
