<svg width="20" height="20" viewBox="0 0 20 20" fill="none" xmlns="http://www.w3.org/2000/svg">
<path fill-rule="evenodd" clip-rule="evenodd" d="M3.33334 4.16667C2.87691 4.16667 2.50001 4.54357 2.50001 5V15C2.50001 15.4564 2.87691 15.8333 3.33334 15.8333H16.6667C17.1231 15.8333 17.5 15.4564 17.5 15V5C17.5 4.54357 17.1231 4.16667 16.6667 4.16667H3.33334ZM0.833344 5C0.833344 3.6231 1.95644 2.5 3.33334 2.5H16.6667C18.0436 2.5 19.1667 3.6231 19.1667 5V15C19.1667 16.3769 18.0436 17.5 16.6667 17.5H3.33334C1.95644 17.5 0.833344 16.3769 0.833344 15V5Z" fill="black"/>
<path fill-rule="evenodd" clip-rule="evenodd" d="M0.983964 4.52212C1.24789 4.14507 1.7675 4.05338 2.14454 4.31731L9.99999 9.81612L17.8554 4.31731C18.2325 4.05338 18.7521 4.14507 19.016 4.52212C19.2799 4.89916 19.1883 5.41876 18.8112 5.68269L10.4779 11.516C10.1909 11.7169 9.80904 11.7169 9.52211 11.516L1.18877 5.68269C0.81173 5.41876 0.720035 4.89916 0.983964 4.52212Z" fill="black"/>
</svg>
