<svg width="30" height="30" viewBox="0 0 30 30" fill="none" xmlns="http://www.w3.org/2000/svg">
<path fill-rule="evenodd" clip-rule="evenodd" d="M4.6875 19.6875V27.1875H5.625V19.6875H4.6875ZM2.8125 19.2188C2.8125 18.4421 3.4421 17.8125 4.21875 17.8125H6.09375C6.8704 17.8125 7.5 18.4421 7.5 19.2188V27.6562C7.5 28.4329 6.8704 29.0625 6.09375 29.0625H4.21875C3.4421 29.0625 2.8125 28.4329 2.8125 27.6562V19.2188Z" fill="#F3F3F3"/>
<path fill-rule="evenodd" clip-rule="evenodd" d="M17.8125 14.0625V27.1875H18.75V14.0625H17.8125ZM15.9375 13.5938C15.9375 12.8171 16.5671 12.1875 17.3438 12.1875H19.2188C19.9954 12.1875 20.625 12.8171 20.625 13.5938V27.6562C20.625 28.4329 19.9954 29.0625 19.2188 29.0625H17.3438C16.5671 29.0625 15.9375 28.4329 15.9375 27.6562V13.5938Z" fill="#F3F3F3"/>
<path fill-rule="evenodd" clip-rule="evenodd" d="M24.375 7.5V27.1875H25.3125V7.5H24.375ZM22.5 7.03125C22.5 6.2546 23.1296 5.625 23.9062 5.625H25.7812C26.5579 5.625 27.1875 6.2546 27.1875 7.03125V27.6562C27.1875 28.4329 26.5579 29.0625 25.7812 29.0625H23.9062C23.1296 29.0625 22.5 28.4329 22.5 27.6562V7.03125Z" fill="#F3F3F3"/>
<path fill-rule="evenodd" clip-rule="evenodd" d="M11.25 2.8125V27.1875H12.1875V2.8125H11.25ZM9.375 2.34375C9.375 1.5671 10.0046 0.9375 10.7812 0.9375H12.6562C13.4329 0.9375 14.0625 1.5671 14.0625 2.34375V27.6562C14.0625 28.4329 13.4329 29.0625 12.6562 29.0625H10.7812C10.0046 29.0625 9.375 28.4329 9.375 27.6562V2.34375Z" fill="#F3F3F3"/>
</svg>
