<svg width="17" height="16" viewBox="0 0 17 16" fill="none" xmlns="http://www.w3.org/2000/svg">
<path d="M8.6665 9.00001C8.40129 9.00001 8.14693 8.89465 7.9594 8.70711C7.77186 8.51958 7.6665 8.26522 7.6665 8.00001C7.6665 7.73479 7.77186 7.48043 7.9594 7.2929C8.14693 7.10536 8.40129 7 8.6665 7C8.93172 7 9.18607 7.10536 9.37361 7.2929C9.56115 7.48043 9.6665 7.73479 9.6665 8.00001C9.6665 8.26522 9.56115 8.51958 9.37361 8.70711C9.18607 8.89465 8.93172 9.00001 8.6665 9.00001ZM8.3145 10.996C8.43117 11.136 8.5485 11.272 8.6665 11.402C8.7845 11.272 8.90184 11.1367 9.0185 10.996C8.78386 11.001 8.54914 11.001 8.3145 10.996V10.996ZM6.9845 10.9127C6.47254 10.8594 5.96397 10.7775 5.46117 10.6673C5.41117 10.9007 5.37317 11.1273 5.34784 11.3447C5.22117 12.4 5.39784 13.0413 5.6665 13.196C5.93517 13.3513 6.5785 13.1833 7.42984 12.5467C7.60517 12.4153 7.78184 12.2693 7.95917 12.11C7.61217 11.7294 7.28677 11.3297 6.9845 10.9127V10.9127ZM11.8718 10.6673C11.3938 10.774 10.8832 10.8567 10.3485 10.9127C10.0462 11.3297 9.72084 11.7294 9.37384 12.11C9.55117 12.27 9.72784 12.4153 9.90317 12.5467C10.7545 13.1833 11.3978 13.3513 11.6665 13.196C11.9352 13.0413 12.1112 12.4 11.9858 11.3447C11.9583 11.1173 11.9205 10.8913 11.8725 10.6673H11.8718ZM12.8385 10.4093C13.2232 12.1687 13.0212 13.5693 12.1665 14.0627C11.3118 14.556 9.99784 14.0307 8.6665 12.818C7.33517 14.0307 6.02117 14.5553 5.1665 14.062C4.31184 13.5687 4.10984 12.1687 4.49384 10.4087C2.77784 9.86267 1.6665 8.98667 1.6665 8.00001C1.6665 7.01334 2.77784 6.138 4.49384 5.59067C4.10984 3.83134 4.31184 2.43067 5.1665 1.93734C6.02117 1.444 7.33517 1.96934 8.6665 3.182C9.99784 1.96934 11.3118 1.44467 12.1665 1.938C13.0212 2.43134 13.2232 3.83134 12.8392 5.59134C14.5552 6.13734 15.6665 7.01334 15.6665 8.00001C15.6665 8.98667 14.5552 9.86201 12.8392 10.4093H12.8385ZM7.9585 3.89001C7.78896 3.73654 7.61256 3.59084 7.42984 3.45334C6.5785 2.81667 5.93517 2.64867 5.6665 2.804C5.39784 2.95867 5.22184 3.6 5.34717 4.65534C5.37384 4.87334 5.41117 5.09934 5.4605 5.33267C5.96352 5.22249 6.47232 5.14059 6.9845 5.08734C7.30117 4.652 7.62784 4.25134 7.95917 3.89001H7.9585ZM10.3485 5.08734C10.8832 5.14334 11.3938 5.22667 11.8718 5.33267C11.9218 5.09934 11.9598 4.87267 11.9852 4.65534C12.1118 3.6 11.9352 2.95867 11.6665 2.804C11.3978 2.64867 10.7545 2.81667 9.90317 3.45334C9.72022 3.59082 9.54359 3.73653 9.37384 3.89001C9.70517 4.25134 10.0318 4.652 10.3485 5.08734V5.08734ZM9.0185 5.004C8.90184 4.864 8.7845 4.728 8.6665 4.598C8.5485 4.728 8.43117 4.86334 8.3145 5.004C8.54914 4.99903 8.78386 4.99903 9.0185 5.004V5.004ZM6.24784 9.80267C6.12621 9.60207 6.00885 9.39892 5.89584 9.19334C5.8325 9.36467 5.77384 9.53334 5.7205 9.70067C5.89184 9.73801 6.06784 9.77201 6.24717 9.80267H6.24784ZM7.53584 9.95867C8.28858 10.0146 9.04443 10.0146 9.79717 9.95867C10.222 9.33464 10.5999 8.67995 10.9278 8.00001C10.5999 7.32006 10.222 6.66537 9.79717 6.04134C9.04443 5.98543 8.28858 5.98543 7.53584 6.04134C7.11103 6.66537 6.73311 7.32006 6.40517 8.00001C6.73311 8.67995 7.11103 9.33464 7.53584 9.95867V9.95867ZM11.4372 6.80667C11.5005 6.63534 11.5592 6.46667 11.6125 6.29934C11.4377 6.26141 11.2621 6.2274 11.0858 6.19734C11.2072 6.39794 11.3244 6.6011 11.4372 6.80667ZM4.75317 6.558C4.5265 6.63134 4.31184 6.71134 4.1105 6.798C3.13384 7.21667 2.6665 7.69001 2.6665 8.00001C2.6665 8.31001 3.13317 8.78334 4.1105 9.20201C4.31184 9.28867 4.5265 9.36867 4.75317 9.44201C4.90117 8.97534 5.0845 8.49134 5.30317 8.00001C5.09305 7.52999 4.90943 7.04856 4.75317 6.558V6.558ZM5.71984 6.29934C5.77384 6.46601 5.8325 6.63534 5.89584 6.806C6.00886 6.60065 6.12622 6.39772 6.24784 6.19734C6.06784 6.228 5.89184 6.26201 5.7205 6.29934H5.71984ZM12.5798 9.44201C12.8065 9.36867 13.0212 9.28867 13.2225 9.20201C14.1992 8.78334 14.6665 8.31001 14.6665 8.00001C14.6665 7.69001 14.1998 7.21667 13.2225 6.798C13.012 6.70834 12.7976 6.62826 12.5798 6.558C12.4318 7.02467 12.2485 7.50867 12.0298 8.00001C12.2485 8.49134 12.4318 8.97467 12.5798 9.44201V9.44201ZM11.6132 9.70067C11.5592 9.53401 11.5005 9.36467 11.4372 9.19401C11.3242 9.39936 11.2068 9.60229 11.0852 9.80267C11.2652 9.77201 11.4412 9.73801 11.6125 9.70067H11.6132Z" fill="#1A202C"/>
</svg>
